<svg width="15" height="16" viewBox="0 0 15 16" fill="none" xmlns="http://www.w3.org/2000/svg">
<path d="M11.875 2.67383H3.125C2.62772 2.67383 2.15081 2.87137 1.79917 3.223C1.44754 3.57463 1.25 4.05155 1.25 4.54883V10.7988C1.25 11.2961 1.44754 11.773 1.79917 12.1247C2.15081 12.4763 2.62772 12.6738 3.125 12.6738H11.875C12.3723 12.6738 12.8492 12.4763 13.2008 12.1247C13.5525 11.773 13.75 11.2961 13.75 10.7988V4.54883C13.75 4.05155 13.5525 3.57463 13.2008 3.223C12.8492 2.87137 12.3723 2.67383 11.875 2.67383ZM11.4563 3.92383L7.5 6.89258L3.54375 3.92383H11.4563ZM11.875 11.4238H3.125C2.95924 11.4238 2.80027 11.358 2.68306 11.2408C2.56585 11.1236 2.5 10.9646 2.5 10.7988V4.70508L7.125 8.17383C7.23318 8.25497 7.36477 8.29883 7.5 8.29883C7.63523 8.29883 7.76682 8.25497 7.875 8.17383L12.5 4.70508V10.7988C12.5 10.9646 12.4342 11.1236 12.3169 11.2408C12.1997 11.358 12.0408 11.4238 11.875 11.4238Z" fill="white"/>
</svg>
