<svg width="26" height="26" viewBox="0 0 26 26" fill="none" xmlns="http://www.w3.org/2000/svg">
<path d="M25.1084 18.0769C25.1084 22.6269 22.3959 25.3394 17.8459 25.3394H16.3584C15.6709 25.3394 15.1084 24.7769 15.1084 24.0894V16.8769C15.1084 16.5394 15.3834 16.2519 15.7209 16.2519L17.9209 16.2144C18.0959 16.2019 18.2459 16.0769 18.2834 15.9019L18.7209 13.5144C18.7584 13.2894 18.5834 13.0769 18.3459 13.0769L15.6834 13.1144C15.3334 13.1144 15.0584 12.8394 15.0459 12.5019L14.9959 9.43935C14.9959 9.23936 15.1584 9.06437 15.3709 9.06437L18.3709 9.01435C18.5834 9.01435 18.7459 8.85187 18.7459 8.63937L18.6959 5.63934C18.6959 5.42684 18.5334 5.26436 18.3209 5.26436L14.9459 5.31437C12.8709 5.35187 11.2209 7.05186 11.2584 9.12685L11.3209 12.5644C11.3334 12.9144 11.0584 13.1894 10.7084 13.2019L9.2084 13.2269C8.9959 13.2269 8.83341 13.3894 8.83341 13.6019L8.87091 15.9769C8.87091 16.1894 9.0334 16.3519 9.2459 16.3519L10.7459 16.3269C11.0959 16.3269 11.3709 16.6019 11.3834 16.9394L11.4959 24.0644C11.5084 24.7644 10.9459 25.3394 10.2459 25.3394H7.3709C2.8209 25.3394 0.108398 22.6269 0.108398 18.0644V7.60186C0.108398 3.05186 2.8209 0.339355 7.3709 0.339355H17.8459C22.3959 0.339355 25.1084 3.05186 25.1084 7.60186V18.0769Z" fill="white"/>
</svg>
