<svg width="52" height="50" viewBox="0 0 52 50" fill="none" xmlns="http://www.w3.org/2000/svg">
<path d="M31.685 7.96593C31.2494 7.61822 30.7541 7.27051 30.3543 6.99413C29.4353 6.34626 28.394 5.61815 27.5735 4.75928L27.3467 4.52154C25.5087 2.5928 23.2232 0.191528 20.3171 0.191528C19.3355 0.191528 18.5806 0.568955 17.9152 0.901804C17.5989 1.05931 17.1782 1.26734 16.9186 1.31192C16.6471 1.27032 16.2413 1.06823 15.9072 0.901804C15.2388 0.568955 14.4869 0.191528 13.5053 0.191528C10.6021 0.191528 8.31659 2.58982 6.47862 4.51856L6.24588 4.76226C5.42835 5.61815 4.40495 6.34329 3.50387 6.98521C3.17864 7.21702 2.77283 7.50529 2.39987 7.79653C2.32229 7.85597 2.2477 7.91243 2.17908 7.97187C1.29292 8.68215 0.8036 9.76985 0.85134 10.8992C0.902063 12.0285 1.48685 13.0686 2.4297 13.7016C2.84444 13.981 3.70673 14.5605 5.23141 16.5546C6.08177 17.6691 9.3937 21.2888 16.4591 21.4136C16.5367 21.4196 16.6143 21.4225 16.6889 21.4225H16.8918H17.0589H17.1006C17.1782 21.4225 17.2558 21.4196 17.3334 21.4136C23.9871 21.3007 27.2483 18.3258 28.5999 16.5546C30.047 14.6645 30.9361 14.0642 31.4672 13.7046C32.4071 13.0656 32.9889 12.0225 33.0307 10.8902C33.0755 9.75499 32.5742 8.67026 31.685 7.96593ZM8.84174 7.21999L9.07444 6.97332C10.3694 5.61815 12.1387 3.75777 13.5053 3.75777C13.6396 3.75777 14.0065 3.94202 14.3049 4.09062C14.9583 4.41455 15.8505 4.86033 16.9246 4.8841C17.9719 4.86033 18.867 4.41455 19.5204 4.09062C19.8158 3.94202 20.1828 3.75777 20.3171 3.75777C21.6836 3.75777 23.456 5.61815 24.7509 6.9763L24.9806 7.21999C25.473 7.73412 26.007 8.19773 26.5351 8.61677C25.2014 8.3701 23.8319 8.13532 22.5877 8.13532C21.9581 8.13532 21.1376 8.31661 19.8606 8.61379C18.7864 8.8664 17.5661 9.1517 16.85 9.15467C16.119 9.1517 14.9016 8.8664 13.8215 8.61379C12.5475 8.31661 11.727 8.13532 11.0974 8.13532C9.91586 8.13532 8.61795 8.3493 7.34092 8.57813C7.85114 8.17396 8.36434 7.71926 8.84174 7.21999ZM25.7534 14.3941C24.7867 15.6601 22.3878 17.7879 17.1722 17.8503C17.1484 17.8503 17.1245 17.8503 17.1006 17.8563H16.8918H16.6889C16.668 17.8503 16.6441 17.8503 16.6173 17.8503C10.9512 17.779 8.51351 14.9587 8.08088 14.397C7.43043 13.5411 6.86053 12.8873 6.36225 12.3762C6.75014 12.3108 7.14101 12.2395 7.52591 12.1711C8.791 11.9393 10.0979 11.7016 11.0914 11.7016C11.3868 11.7075 12.3983 11.9453 13.01 12.0879C14.3318 12.397 15.6983 12.715 16.85 12.7209C17.9868 12.715 19.3563 12.397 20.6811 12.0849C21.2838 11.9453 22.2983 11.7075 22.5877 11.7016C23.5872 11.7016 24.8911 11.9393 26.1532 12.1711C26.5888 12.2514 27.0304 12.3316 27.4661 12.3999C26.9648 12.9081 26.3949 13.556 25.7534 14.3941ZM29.3249 10.8397L29.3398 10.6644C29.3786 10.6941 29.4174 10.7238 29.4532 10.7535C29.4115 10.7803 29.3697 10.81 29.3249 10.8397Z" fill="black"/>
<path d="M50.9778 31.4258L47.4182 31.0484C47.7106 28.3172 47.5405 25.6366 46.9169 23.0808C46.2933 20.5309 45.2281 18.1326 43.7452 15.9572C43.1246 15.0449 42.4324 14.1652 41.6865 13.339C41.6059 13.2469 41.5224 13.1577 41.4358 13.0686L41.4597 19.5532L37.8792 19.5651L37.8405 7.33289L50.1184 7.37152L50.1095 10.9378L44.3151 10.9199C44.3151 10.9199 44.336 10.9437 44.348 10.9556C45.2013 11.9006 45.9979 12.9111 46.708 13.9572C48.4326 16.4862 49.6709 19.2738 50.3959 22.2368C51.118 25.1968 51.3149 28.2875 50.9778 31.4258Z" fill="black"/>
<path d="M38.0435 29.3395L35.1135 29.8982L35.752 33.2296L32.079 33.8983C30.623 34.1628 29.6532 35.5596 29.9188 37.0099L30.1933 38.5136C30.429 39.8034 31.5628 40.7098 32.8339 40.7098C32.995 40.7098 33.1561 40.695 33.3172 40.6653L36.9992 39.9966C37.0171 39.9936 37.035 39.9906 37.0499 39.9847L37.6854 43.2924L40.6154 42.7337L38.0435 29.3395ZM36.5695 37.6577L32.8906 38.3264C32.7892 38.3472 32.7116 38.3115 32.6668 38.2788C32.6191 38.2462 32.5594 38.1897 32.5415 38.0886L32.267 36.5849C32.2371 36.4244 32.3446 36.2669 32.5057 36.2372L36.1876 35.5715C36.1876 35.5715 36.1965 35.5685 36.2025 35.5685L36.6023 37.6488C36.6023 37.6488 36.5814 37.6548 36.5695 37.6577Z" fill="black"/>
<path d="M46.2039 35.0722L46.2546 35.3397C46.7051 37.7231 45.1267 40.0263 42.7338 40.478L11.0736 46.4337L9.22667 36.6889L40.8869 30.7333C41.1614 30.6828 41.4329 30.656 41.7014 30.656C42.5906 30.656 43.438 30.9235 44.1481 31.396L44.2018 29.396L44.2525 27.5088C42.9963 27.0868 41.6149 26.9679 40.2215 27.2295L8.5613 33.1851C7.62143 33.3604 6.8069 33.8924 6.26684 34.6799C5.72679 35.4675 5.52986 36.4155 5.7059 37.3516L7.55281 47.0964C7.87803 48.8082 9.38482 50.0029 11.0736 49.9999C11.2914 49.9999 11.5122 49.9791 11.736 49.9375L43.3962 43.9819C45.4937 43.5866 47.3138 42.4008 48.5192 40.6445C49.6053 39.0605 50.0708 37.1822 49.8619 35.2981L46.2039 35.0722Z" fill="black"/>
</svg>
