<svg width="26" height="26" viewBox="0 0 26 26" fill="none" xmlns="http://www.w3.org/2000/svg">
<path fill-rule="evenodd" clip-rule="evenodd" d="M7.45492 0.414355C8.78826 0.353242 9.21326 0.339355 12.6084 0.339355C16.0042 0.339355 16.4285 0.353935 17.7611 0.414355C19.0924 0.474776 20.0015 0.686583 20.7966 0.995605C21.6306 1.30959 22.386 1.80156 23.0104 2.43728C23.6462 3.06163 24.1383 3.81715 24.4522 4.65116C24.7611 5.4463 24.9723 6.35533 25.0334 7.68588C25.0945 9.01922 25.1084 9.44422 25.1084 12.8394C25.1084 16.2345 25.0939 16.6595 25.0334 17.9929C24.9729 19.3233 24.7611 20.2324 24.4522 21.0275C24.1327 21.8491 23.7049 22.547 23.0104 23.2414C22.3861 23.8772 21.6306 24.3692 20.7966 24.6831C20.0015 24.9921 19.0924 25.2032 17.7619 25.2644C16.4285 25.3255 16.0035 25.3394 12.6084 25.3394C9.21326 25.3394 8.78826 25.3248 7.45492 25.2644C6.12438 25.2039 5.21534 24.9921 4.42021 24.6831C3.59867 24.3637 2.90076 23.9358 2.20632 23.2414C1.57049 22.6171 1.07849 21.8615 0.764648 21.0275C0.455626 20.2324 0.244512 19.3233 0.183398 17.9929C0.122285 16.6595 0.108398 16.2352 0.108398 12.8394C0.108398 9.44353 0.122978 9.01922 0.183398 7.68658C0.243819 6.35533 0.455626 5.4463 0.764648 4.65116C1.07864 3.81721 1.5706 3.06172 2.20632 2.43728C2.83066 1.80145 3.58618 1.30945 4.42021 0.995605C5.21534 0.686583 6.12438 0.475469 7.45492 0.414355ZM17.6598 2.66436C16.3417 2.60463 15.9459 2.59143 12.6084 2.59143C9.2709 2.59143 8.87507 2.60463 7.55701 2.66436C6.33826 2.71991 5.67646 2.92338 5.23617 3.09491C4.65284 3.3213 4.23617 3.59213 3.79867 4.02963C3.36188 4.46713 3.09034 4.8838 2.86396 5.46713C2.69242 5.90741 2.48896 6.56922 2.4334 7.78797C2.37367 9.10603 2.36048 9.50185 2.36048 12.8394C2.36048 16.1769 2.37367 16.5727 2.4334 17.8907C2.48896 19.1095 2.69242 19.7713 2.86396 20.2116C3.06421 20.7546 3.38361 21.2457 3.79867 21.6491C4.20197 22.0641 4.69318 22.3836 5.23617 22.5838C5.67646 22.7554 6.33826 22.9588 7.55701 23.0144C8.87507 23.0741 9.27021 23.0873 12.6084 23.0873C15.9466 23.0873 16.3417 23.0741 17.6598 23.0144C18.8785 22.9588 19.5403 22.7554 19.9807 22.5838C20.564 22.3574 20.9807 22.0866 21.4182 21.6491C21.8332 21.2458 22.1526 20.7546 22.3528 20.2116C22.5244 19.7713 22.7278 19.1095 22.7834 17.8907C22.8432 16.5727 22.8564 16.1769 22.8564 12.8394C22.8564 9.50185 22.8432 9.10603 22.7834 7.78797C22.7278 6.56922 22.5244 5.90741 22.3528 5.46713C22.1265 4.8838 21.8557 4.46713 21.4182 4.02963C20.9807 3.59283 20.564 3.3213 19.9807 3.09491C19.5403 2.92338 18.8785 2.71991 17.6598 2.66436ZM11.0124 16.6926C11.5184 16.9023 12.0607 17.0102 12.6084 17.0102C13.7147 17.0102 14.7754 16.5707 15.5576 15.7886C16.3399 15.0064 16.7793 13.9455 16.7793 12.8394C16.7793 11.7332 16.3399 10.6723 15.5576 9.89013C14.7754 9.10795 13.7147 8.66852 12.6084 8.66852C12.0607 8.66852 11.5184 8.7764 11.0124 8.986C10.5062 9.19561 10.0465 9.50282 9.65921 9.89013C9.27191 10.2774 8.96468 10.7372 8.75508 11.2432C8.54548 11.7492 8.4376 12.2916 8.4376 12.8394C8.4376 13.3871 8.54548 13.9295 8.75508 14.4355C8.96468 14.9415 9.27191 15.4013 9.65921 15.7886C10.0465 16.1758 10.5062 16.4831 11.0124 16.6926ZM8.06527 8.29619C9.2702 7.09126 10.9044 6.41434 12.6084 6.41434C14.3125 6.41434 15.9467 7.09126 17.1516 8.29619C18.3565 9.50111 19.0334 11.1354 19.0334 12.8394C19.0334 14.5433 18.3565 16.1775 17.1516 17.3825C15.9467 18.5874 14.3125 19.2644 12.6084 19.2644C10.9044 19.2644 9.2702 18.5874 8.06527 17.3825C6.86035 16.1775 6.18343 14.5433 6.18343 12.8394C6.18343 11.1354 6.86035 9.50111 8.06527 8.29619ZM20.4581 7.3716C20.7428 7.08678 20.9028 6.70048 20.9028 6.29769C20.9028 5.89488 20.7428 5.50858 20.4581 5.22376C20.1732 4.93895 19.7869 4.77893 19.3841 4.77893C18.9814 4.77893 18.595 4.93895 18.3102 5.22376C18.0253 5.50858 17.8653 5.89488 17.8653 6.29769C17.8653 6.70048 18.0253 7.08678 18.3102 7.3716C18.595 7.65642 18.9814 7.81644 19.3841 7.81644C19.7869 7.81644 20.1732 7.65642 20.4581 7.3716Z" fill="white"/>
</svg>
