<svg width="11" height="17" viewBox="0 0 11 17" fill="none" xmlns="http://www.w3.org/2000/svg">
<path fill-rule="evenodd" clip-rule="evenodd" d="M8.5 1.05127H2.5C2.23478 1.05127 1.98043 1.15663 1.79289 1.34416C1.60536 1.5317 1.5 1.78605 1.5 2.05127V14.0513C1.5 14.3165 1.60536 14.5708 1.79289 14.7584C1.98043 14.9459 2.23478 15.0513 2.5 15.0513H8.5C8.76522 15.0513 9.01957 14.9459 9.20711 14.7584C9.39464 14.5708 9.5 14.3165 9.5 14.0513V2.05127C9.5 1.78605 9.39464 1.5317 9.20711 1.34416C9.01957 1.15663 8.76522 1.05127 8.5 1.05127ZM2.5 0.0512695C1.96957 0.0512695 1.46086 0.261983 1.08579 0.637056C0.710714 1.01213 0.5 1.52084 0.5 2.05127V14.0513C0.5 14.5817 0.710714 15.0904 1.08579 15.4655C1.46086 15.8406 1.96957 16.0513 2.5 16.0513H8.5C9.03043 16.0513 9.53914 15.8406 9.91421 15.4655C10.2893 15.0904 10.5 14.5817 10.5 14.0513V2.05127C10.5 1.52084 10.2893 1.01213 9.91421 0.637056C9.53914 0.261983 9.03043 0.0512695 8.5 0.0512695L2.5 0.0512695Z" fill="white"/>
<path fill-rule="evenodd" clip-rule="evenodd" d="M5.5 14.0513C5.76522 14.0513 6.01957 13.9459 6.20711 13.7584C6.39464 13.5708 6.5 13.3165 6.5 13.0513C6.5 12.7861 6.39464 12.5317 6.20711 12.3442C6.01957 12.1566 5.76522 12.0513 5.5 12.0513C5.23478 12.0513 4.98043 12.1566 4.79289 12.3442C4.60536 12.5317 4.5 12.7861 4.5 13.0513C4.5 13.3165 4.60536 13.5708 4.79289 13.7584C4.98043 13.9459 5.23478 14.0513 5.5 14.0513Z" fill="white"/>
</svg>
