<svg width="26" height="26" viewBox="0 0 26 26" fill="none" xmlns="http://www.w3.org/2000/svg">
<path d="M23.2567 0.339355H1.95388C0.935135 0.339355 0.108398 1.14665 0.108398 2.14074V23.5355C0.108398 24.531 0.935135 25.3394 1.95388 25.3394H23.2567C24.2761 25.3394 25.1084 24.531 25.1084 23.5355V2.14074C25.1084 1.14665 24.2761 0.339355 23.2567 0.339355ZM7.52298 21.6428H3.81326V9.71262H7.52298V21.6428ZM5.66812 8.08137C4.47958 8.08137 3.51882 7.11818 3.51882 5.93068C3.51882 4.74491 4.47958 3.78172 5.66812 3.78172C6.85388 3.78172 7.81708 4.74491 7.81708 5.93068C7.81708 7.11818 6.85388 8.08137 5.66812 8.08137ZM21.4105 21.6428H17.7067V15.8414C17.7067 14.4574 17.6796 12.6779 15.7792 12.6779C13.8494 12.6779 13.5553 14.1852 13.5553 15.7411V21.6432H9.84868V9.71262H13.406V11.3418H13.4567C13.9518 10.4043 15.1615 9.41505 16.9657 9.41505C20.7178 9.41505 21.4108 11.8852 21.4108 15.0987L21.4105 21.6428Z" fill="white"/>
</svg>
