<svg width="24" height="26" viewBox="0 0 24 26" fill="none" xmlns="http://www.w3.org/2000/svg">
<circle cx="12" cy="7.5" r="6.5" stroke="white" stroke-width="2"/>
<mask id="path-2-outside-1_538_43" maskUnits="userSpaceOnUse" x="-0.5" y="16" width="25" height="10" fill="black">
<rect fill="white" x="-0.5" y="16" width="25" height="10"/>
<path fill-rule="evenodd" clip-rule="evenodd" d="M2.5 24H21.5C21.2396 20.6571 17.0859 18 12 18C6.91409 18 2.76036 20.6571 2.5 24Z"/>
</mask>
<path d="M2.5 24L0.506039 23.8447L0.338171 26H2.5V24ZM21.5 24V26H23.6618L23.494 23.8447L21.5 24ZM2.5 26H21.5V22H2.5V26ZM23.494 23.8447C23.2996 21.3494 21.6782 19.3557 19.6306 18.0573C17.5645 16.7474 14.8732 16 12 16V20C14.2127 20 16.1412 20.5812 17.4886 21.4355C18.8544 22.3015 19.44 23.3077 19.506 24.1553L23.494 23.8447ZM12 16C9.12683 16 6.43549 16.7474 4.36945 18.0573C2.32177 19.3557 0.700383 21.3494 0.506039 23.8447L4.49396 24.1553C4.55998 23.3077 5.14563 22.3015 6.51139 21.4355C7.85878 20.5812 9.78726 20 12 20V16Z" fill="white" mask="url(#path-2-outside-1_538_43)"/>
</svg>
