<svg width="76" height="23" viewBox="0 0 76 23" fill="none" xmlns="http://www.w3.org/2000/svg">
<path d="M2.12029 4.53132C1.56364 4.53132 1.0841 4.32399 0.680986 3.90934C0.277868 3.49543 0.0766602 2.99427 0.0766602 2.40734C0.0766602 1.82042 0.277868 1.31553 0.680986 0.890434C1.0841 0.465341 1.56364 0.25354 2.12029 0.25354C2.67694 0.25354 3.15648 0.466086 3.5596 0.890434C3.96271 1.31553 4.16392 1.82116 4.16392 2.40734C4.16392 2.99353 3.96271 3.49469 3.5596 3.90934C3.15648 4.32399 2.67694 4.53132 2.12029 4.53132ZM0.451034 5.7447H3.76151V22.4635H0.451034V5.74544V5.7447Z" fill="white"/>
<path d="M8.30852 22.4632H4.99805V0.919935H8.30852L8.32324 9.5344L11.5117 0.927393L14.8208 0.919189L11.0911 10.885L14.2985 22.4632H11.049L8.33726 12.8017L8.30852 22.4632Z" fill="white"/>
<path d="M18.8437 22.4633H15.5332V5.74451H18.8437V8.01391C19.1746 7.16969 19.6787 6.629 20.3117 6.2755C20.9448 5.922 22.0041 5.86309 22.816 5.96227V9.1281C22.0483 9.1281 22.5776 9.1281 22.0686 9.1281C19.4143 9.1281 18.8437 10.6674 18.8437 11.8867V22.4633Z" fill="white"/>
<path d="M67.7792 22.4633H64.4688V5.74451H67.7792V8.01391C68.1101 7.16969 68.6142 6.629 69.2473 6.2755C69.8803 5.922 70.9397 5.86309 71.7515 5.96227V9.1281C70.9838 9.1281 71.5131 9.1281 71.0042 9.1281C68.3499 9.1281 67.7792 10.6674 67.7792 11.8867V22.4633Z" fill="white"/>
<path d="M27.6232 22.6759C26.9901 22.6759 26.4573 22.5394 26.0255 22.2664C25.5936 21.9935 25.2381 21.6243 24.9605 21.159C24.6822 20.6936 24.4859 20.1574 24.3702 19.5511C24.2552 18.944 24.1978 18.3071 24.1978 17.6396V5.74451H27.5082V18.0013C27.5082 18.5473 27.6281 18.8515 27.8868 19.1245C28.1462 19.3974 28.4435 19.4996 28.7603 19.5048C29.1263 19.5108 29.4144 19.3758 29.683 19.1021C29.9515 18.8292 30.0412 18.5241 30.0412 17.9976V5.74451H33.3517V22.4633H30.0882V20.1164C30.0973 20.6481 29.2623 22.6759 27.6232 22.6759Z" fill="white"/>
<path d="M38.8486 5.47144C39.4817 5.47144 40.0762 5.59822 40.6335 5.85104C41.1902 6.10385 41.6746 6.45288 42.0868 6.89811C42.4991 7.34334 42.8251 7.85941 43.0655 8.44559C43.3053 9.03252 43.4252 9.65897 43.4252 10.3272V11.3892H40.1147V9.93267C40.1147 9.56873 39.9899 9.26073 39.7403 9.00716C39.4908 8.75435 39.1935 8.62756 38.8479 8.62756C38.5023 8.62756 38.205 8.75435 37.9554 9.00716C37.7058 9.25998 37.581 9.56873 37.581 9.93267V10.7523C37.581 11.1572 37.7248 11.4958 38.0129 11.7688C38.301 12.0417 38.6607 12.2998 39.0926 12.5429C39.5244 12.7853 39.9941 13.0336 40.5031 13.2864C41.0114 13.5392 41.4818 13.8428 41.9137 14.197C42.3455 14.5513 42.7052 14.9704 42.9933 15.4559C43.2815 15.9414 43.4252 16.5485 43.4252 17.2763V17.8222C43.4252 18.4897 43.3053 19.1169 43.0655 19.7038C42.8251 20.2908 42.4991 20.8068 42.0868 21.2513C41.6739 21.6966 41.1895 22.0456 40.6335 22.2984C40.0769 22.5512 39.4824 22.678 38.8486 22.678C38.2148 22.678 37.6203 22.5512 37.0636 22.2984C36.507 22.0456 36.0226 21.6966 35.6103 21.2513C35.1974 20.8068 34.8714 20.2908 34.6316 19.7038C34.3912 19.1177 34.272 18.4905 34.272 17.8222V16.4567H37.5824V18.1862C37.5824 18.5501 37.7072 18.8641 37.9568 19.1266C38.2057 19.3899 38.5037 19.5211 38.8493 19.5211C39.1949 19.5211 39.4922 19.3899 39.7418 19.1266C39.9906 18.8641 40.1161 18.5501 40.1161 18.1862V17.5187C40.1161 17.1145 39.9724 16.7707 39.6843 16.4873C39.3961 16.2039 39.0365 15.9414 38.6046 15.6983C38.1727 15.4559 37.7023 15.2128 37.194 14.9704C36.6851 14.728 36.2153 14.4297 35.7835 14.0755C35.3516 13.722 34.992 13.2969 34.7038 12.8009C34.4157 12.3057 34.272 11.6935 34.272 10.9648V10.3279C34.272 9.66046 34.3919 9.03327 34.6316 8.44634C34.8714 7.86016 35.1974 7.34408 35.6103 6.89885C36.0226 6.45437 36.507 6.10535 37.0636 5.85178C37.6203 5.59896 38.2148 5.47218 38.8486 5.47218V5.47144Z" fill="white"/>
<path d="M50.1896 22.4632V9.81033C50.1896 9.18686 50.1195 9.03845 49.9569 8.78489C49.7935 8.53207 49.4058 8.2002 48.9018 8.21586C48.1586 8.23898 47.656 8.87065 47.6567 9.52768V22.4632H44.3462V0.919922H47.6567V6.94655C48.2771 5.98748 49.2404 5.45947 49.9429 5.41174C52.7184 5.2238 53.5001 7.51781 53.5001 9.03174V22.4632H50.1896Z" fill="white"/>
<path d="M58.9975 22.6757C58.3644 22.6757 57.7692 22.5489 57.2126 22.2961C56.6559 22.0433 56.1715 21.6942 55.7592 21.249C55.3463 20.8045 55.0203 20.2884 54.7805 19.7015C54.5401 19.1153 54.4209 18.4881 54.4209 17.8199V10.3256C54.4209 9.65813 54.5408 9.03093 54.7805 8.44401C55.0203 7.85783 55.3463 7.34175 55.7592 6.89652C56.1715 6.45204 56.6559 6.10301 57.2126 5.84945C57.7692 5.59663 58.3637 5.46985 58.9975 5.46985C59.6313 5.46985 60.2251 5.59663 60.7824 5.84945C61.3391 6.10227 61.8235 6.45129 62.2358 6.89652C62.648 7.34175 62.974 7.85783 63.2145 8.44401C63.4542 9.03093 63.5741 9.65739 63.5741 10.3256V14.103H57.7307V18.1839C57.7307 18.5478 57.8555 18.8618 58.105 19.1243C58.3539 19.3875 58.6519 19.5188 58.9975 19.5188C59.3431 19.5188 59.6404 19.3875 59.89 19.1243C60.1389 18.8618 60.2643 18.5478 60.2643 18.1839V15.423H63.5748V17.8199C63.5748 18.4874 63.4549 19.1146 63.2152 19.7015C62.9747 20.2884 62.6487 20.8045 62.2365 21.249C61.8235 21.6942 61.3391 22.0433 60.7831 22.2961C60.2265 22.5489 59.6313 22.6757 58.9975 22.6757ZM58.9975 8.62672C58.6519 8.62672 58.3546 8.7535 58.105 9.00632C57.8555 9.25914 57.7307 9.56789 57.7307 9.93183V11.9499H60.2636V9.93183C60.2636 9.56789 60.1389 9.25989 59.8893 9.00632C59.6397 8.7535 59.3431 8.62672 58.9975 8.62672Z" fill="white"/>
<path d="M75.8878 1.89134C75.8878 2.82933 75.1952 3.566 74.2943 3.566C73.3934 3.566 72.6909 2.82933 72.6909 1.89134C72.6909 0.953356 73.4025 0.236816 74.2943 0.236816C75.186 0.236816 75.8878 0.973488 75.8878 1.89134ZM73.0898 1.89134C73.0898 2.62802 73.6016 3.21258 74.3041 3.21258C75.0066 3.21258 75.4896 2.62727 75.4896 1.90104C75.4896 1.1748 74.9869 0.569362 74.2943 0.569362C73.6016 0.569362 73.0898 1.16437 73.0898 1.89134ZM74.0475 2.7585H73.6871V1.10397C73.8295 1.07415 74.0286 1.05327 74.2845 1.05327C74.5789 1.05327 74.7114 1.10397 74.825 1.17406C74.9105 1.24489 74.9764 1.37612 74.9764 1.53718C74.9764 1.71911 74.8439 1.86003 74.6539 1.92042V1.94056C74.8054 2.00095 74.8909 2.12249 74.9386 2.34394C74.9862 2.59595 75.0143 2.69736 75.0521 2.75775H74.663C74.6154 2.69736 74.5873 2.546 74.5396 2.35437C74.5109 2.17319 74.4163 2.09192 74.2172 2.09192H74.0461V2.75775L74.0475 2.7585ZM74.0566 1.82051H74.2277C74.4268 1.82051 74.588 1.74968 74.588 1.57818C74.588 1.42682 74.4836 1.32617 74.2564 1.32617C74.1618 1.32617 74.0952 1.33586 74.0573 1.3463V1.82051H74.0566Z" fill="white"/>
</svg>
