<svg width="36" height="37" viewBox="0 0 36 37" fill="none" xmlns="http://www.w3.org/2000/svg">
<g clip-path="url(#clip0_168_38)">
<path d="M18.0002 36.2402C13.1921 36.2402 8.67184 34.368 5.27206 30.9682C1.87229 27.5685 0 23.0483 0 18.2402C0 13.4322 1.87229 8.91198 5.27206 5.51224C8.67184 2.1125 13.1921 0.240234 18.0002 0.240234C22.8083 0.240234 27.3286 2.1125 30.7283 5.51224C34.1281 8.91198 36.0004 13.4322 36.0004 18.2402C36.0004 23.0483 34.1281 27.5685 30.7283 30.9682C27.3286 34.368 22.8083 36.2402 18.0002 36.2402ZM18.0002 2.77021C9.46987 2.77021 2.53 9.71 2.53 18.2402C2.53 26.7705 9.46987 33.7103 18.0002 33.7103C26.5305 33.7103 33.4704 26.7705 33.4704 18.2402C33.4704 9.71 26.5305 2.77021 18.0002 2.77021Z" fill="white"/>
<path d="M26.2062 17.793L14.3048 10.9218C13.9604 10.7229 13.5303 10.9716 13.5303 11.369V25.1111C13.5303 25.5085 13.9608 25.7572 14.3048 25.5583L26.2062 18.6871C26.5506 18.4882 26.5506 17.9915 26.2062 17.7926V17.793Z" fill="white"/>
</g>
<defs>
<clipPath id="clip0_168_38">
<rect width="36" height="36" fill="white" transform="translate(0 0.240234)"/>
</clipPath>
</defs>
</svg>