<svg width="80" height="49" viewBox="0 0 80 49" fill="none" xmlns="http://www.w3.org/2000/svg">
<g clip-path="url(#clip0_1107_409)">
<path d="M40.0278 49.0002C39.7544 49.0002 39.4814 48.9181 39.247 48.7531L9.69028 28.0125C9.07348 27.5795 8.92314 26.7272 9.35463 26.1083C9.78612 25.4894 10.6355 25.3385 11.2523 25.7715L40.0278 45.9643L68.8033 25.7715C69.4201 25.339 70.2695 25.4898 70.701 26.1083C71.1325 26.7272 70.9821 27.5795 70.3653 28.0125L40.8086 48.7536C40.5742 48.9181 40.3008 49.0006 40.0278 49.0006V49.0002Z" fill="#505050"/>
<path d="M40.0281 34.883C39.7546 34.883 39.4817 34.8009 39.2473 34.636L22.1239 22.6199C21.5071 22.1869 21.3567 21.3346 21.7882 20.7157C22.2197 20.0968 23.0691 19.9459 23.6859 20.3789L40.0285 31.8472L56.3712 20.3789C56.988 19.9459 57.8373 20.0968 58.2688 20.7157C58.7003 21.3346 58.55 22.1869 57.9332 22.6199L40.8098 34.636C40.5754 34.8005 40.302 34.883 40.029 34.883H40.0281Z" fill="#505050"/>
<path d="M4.58653 10.8083C3.19668 10.8083 2.09387 10.4993 1.27858 9.88085C0.463286 9.26284 0.0367904 8.39553 0 7.27984H2.39047C2.51083 8.36773 3.243 8.91145 4.58653 8.91145C5.08707 8.91145 5.50856 8.80936 5.85149 8.60473C6.19396 8.40055 6.36564 8.09792 6.36564 7.69822C6.36564 7.52184 6.32613 7.36598 6.24755 7.23107C6.16852 7.09617 6.08086 6.98724 5.98366 6.90338C5.88646 6.81952 5.7125 6.73384 5.46224 6.64542C5.21197 6.557 5.00122 6.49183 4.82999 6.45036C4.6583 6.40843 4.37851 6.34097 3.98926 6.248C3.50735 6.13634 3.1181 6.03653 2.82196 5.94811C2.52536 5.85969 2.20106 5.73436 1.84906 5.57165C1.49705 5.40895 1.22362 5.22528 1.02922 5.02064C0.834824 4.81646 0.669948 4.55349 0.535959 4.23263C0.401515 3.91178 0.334293 3.54216 0.334293 3.12377C0.334293 2.09193 0.704922 1.31304 1.44618 0.787551C2.18653 0.262973 3.15943 0 4.36398 0C5.56852 0 6.47874 0.26753 7.20637 0.802136C7.93355 1.33674 8.33416 2.1015 8.40865 3.09643H6.08767C6.02272 2.68761 5.83514 2.37131 5.52492 2.14799C5.21424 1.92467 4.80455 1.81346 4.29494 1.81346C3.78532 1.81346 3.41015 1.911 3.11356 2.10652C2.81696 2.30158 2.66889 2.56228 2.66889 2.88769C2.66889 3.27827 2.92824 3.57588 3.44739 3.78006C3.70674 3.89173 4.28585 4.04486 5.18472 4.24038C5.72204 4.36116 6.17624 4.48922 6.54687 4.62413C6.9175 4.75903 7.28586 4.94498 7.65194 5.18198C8.01803 5.41897 8.29328 5.72843 8.47905 6.10945C8.66436 6.49092 8.75702 6.94166 8.75702 7.46214C8.75702 8.50355 8.36777 9.32164 7.58972 9.91686C6.81122 10.5121 5.81061 10.8092 4.58744 10.8092L4.58653 10.8083Z" fill="#505050"/>
<path d="M13.5791 10.7942C12.4209 10.7942 11.4825 10.42 10.7644 9.67166C10.0463 8.92331 9.6875 7.98672 9.6875 6.86145C9.6875 5.73619 10.0418 4.78821 10.7508 4.04441C11.4598 3.30061 12.3841 2.92871 13.5237 2.92871C14.4871 2.92871 15.2701 3.17983 15.8724 3.68162C16.4746 4.18387 16.8453 4.84837 16.9843 5.67603H14.8718C14.7051 4.93223 14.265 4.56033 13.5514 4.56033C13.0141 4.56033 12.6039 4.76496 12.3214 5.17378C12.0385 5.58305 11.8976 6.14546 11.8976 6.86145C11.8976 7.57745 12.0389 8.11206 12.3214 8.52087C12.6039 8.93014 13.0141 9.13432 13.5514 9.13432C13.9497 9.13432 14.2695 9.01811 14.5102 8.78567C14.7509 8.55323 14.8945 8.22326 14.9413 7.7953H17.0401C17.0029 8.65988 16.6695 9.37588 16.0395 9.94284C15.4091 10.5103 14.5893 10.7937 13.5796 10.7937L13.5791 10.7942Z" fill="#505050"/>
<path d="M20.1531 3.13803V4.46292H20.1949C20.6396 3.49626 21.3254 3.0127 22.252 3.0127C22.4745 3.0127 22.6271 3.03138 22.7107 3.0683V4.97884H22.6553C22.4977 4.95104 22.3446 4.93691 22.1966 4.93691C21.5943 4.92779 21.1169 5.11101 20.7649 5.48792C20.4125 5.86438 20.2367 6.40628 20.2367 7.1127V10.5573H18.0547V3.13803H20.1536H20.1531Z" fill="#505050"/>
<path d="M27.1849 10.7942C26.0176 10.7942 25.0724 10.42 24.3498 9.67166C23.6272 8.92331 23.2656 7.98672 23.2656 6.86145C23.2656 5.73619 23.6272 4.78821 24.3498 4.04441C25.0724 3.30061 26.0176 2.92871 27.1849 2.92871C28.3522 2.92871 29.2811 3.30061 29.9996 4.04441C30.7177 4.78821 31.077 5.72753 31.077 6.86145C31.077 7.99538 30.7177 8.92331 29.9996 9.67166C29.2815 10.42 28.3432 10.7942 27.1849 10.7942ZM27.1709 9.20405C27.7082 9.20405 28.1251 8.9903 28.4217 8.56235C28.7183 8.13484 28.8664 7.56742 28.8664 6.861C28.8664 6.15457 28.7179 5.57075 28.4217 5.13869C28.1251 4.70617 27.7082 4.49014 27.1709 4.49014C26.6335 4.49014 26.2048 4.70389 25.9132 5.13185C25.6211 5.55981 25.4753 6.13589 25.4753 6.861C25.4753 7.58611 25.6211 8.14669 25.9132 8.56964C26.2052 8.99304 26.624 9.20405 27.1709 9.20405Z" fill="#505050"/>
<path d="M32.2031 10.5574V0.181641H34.3992V10.5579H32.2031V10.5574Z" fill="#505050"/>
<path d="M35.8857 10.5574V0.181641H38.0818V10.5579H35.8857V10.5574Z" fill="#505050"/>
<path d="M43.0713 10.5574V0.181641H47.3799C48.8251 0.181641 49.9811 0.660643 50.8477 1.61819C51.7139 2.57574 52.1472 3.84959 52.1472 5.43927C52.1472 7.02896 51.7184 8.25632 50.8613 9.17695C50.0042 10.0976 48.7974 10.5574 47.2409 10.5574H43.0713ZM45.4481 8.54937H47.0605C47.9499 8.54937 48.6171 8.2823 49.0618 7.74724C49.5064 7.21263 49.729 6.44331 49.729 5.43927C49.729 4.43524 49.5042 3.64267 49.055 3.06158C48.6053 2.48049 47.9544 2.18971 47.1023 2.18971H45.4486V8.54937H45.4481Z" fill="#505050"/>
<path d="M56.8588 10.7942C55.6915 10.7942 54.7463 10.42 54.0236 9.67166C53.301 8.92331 52.9395 7.98672 52.9395 6.86145C52.9395 5.73619 53.301 4.78821 54.0236 4.04441C54.7463 3.30061 55.6915 2.92871 56.8588 2.92871C58.0261 2.92871 58.9549 3.30061 59.6735 4.04441C60.3915 4.78821 60.7504 5.72753 60.7504 6.86145C60.7504 7.99538 60.3911 8.92331 59.6735 9.67166C58.9554 10.42 58.017 10.7942 56.8588 10.7942ZM56.8447 9.20405C57.382 9.20405 57.799 8.9903 58.0956 8.56235C58.3921 8.13484 58.5402 7.56742 58.5402 6.861C58.5402 6.15457 58.3917 5.57075 58.0956 5.13869C57.799 4.70617 57.382 4.49014 56.8447 4.49014C56.3074 4.49014 55.8786 4.70389 55.587 5.13185C55.2949 5.55981 55.1491 6.13589 55.1491 6.861C55.1491 7.58611 55.2949 8.14669 55.587 8.56964C55.879 8.99304 56.2978 9.20405 56.8447 9.20405Z" fill="#505050"/>
<path d="M63.2245 10.557L60.9453 3.1377H63.1691L63.9476 6.02447C64.0216 6.28471 64.0934 6.60784 64.1629 6.99387C64.2324 7.3799 64.2855 7.69802 64.3228 7.94914L64.3782 8.3256H64.4059C64.5635 7.36805 64.7206 6.59189 64.8782 5.99667L65.6286 3.1377H67.4772L68.2557 5.99667C68.3297 6.25691 68.406 6.58232 68.4851 6.97291C68.5636 7.36349 68.6263 7.6889 68.6726 7.94914L68.7421 8.33973H68.7698C68.8993 7.39129 69.0478 6.61969 69.2145 6.02447L70.0066 3.1377H72.1609L69.8677 10.557H67.8106L67.0321 7.53076C66.9671 7.27963 66.8954 6.96607 66.8168 6.58916C66.7377 6.2127 66.6755 5.89868 66.6292 5.64756L66.5738 5.25697H66.5461C66.3698 6.20541 66.2077 6.96333 66.0596 7.5303L65.2534 10.5565H63.224L63.2245 10.557Z" fill="#505050"/>
<path d="M75.1081 3.1379V4.26773H75.1499C75.6036 3.37535 76.3635 2.92871 77.429 2.92871C78.2352 2.92871 78.8652 3.17756 79.3194 3.67479C79.7732 4.17248 80.0003 4.83925 80.0003 5.67603V10.5572H77.8319V6.09441C77.8319 5.6856 77.7252 5.35745 77.5122 5.11134C77.2987 4.86523 76.993 4.74172 76.5947 4.74172C76.1963 4.74172 75.8371 4.89531 75.5732 5.20204C75.3093 5.50876 75.1771 5.89935 75.1771 6.37334V10.5572H72.9951V3.1379H75.1076H75.1081Z" fill="#505050"/>
</g>
<defs>
<clipPath id="clip0_1107_409">
<rect width="80" height="49" fill="white"/>
</clipPath>
</defs>
</svg>
